# xmcd
#
# Track frame offsets:
#	150
#	10972
#	23074
#	35750
#	46733
#	57847
#	68989
#	80427
#	90097
#	100737
#	111684
#	123821
#	133467
#	145325
#	155917
#	167968
#	179348
#	191937
#	202643
#	214018
#	226519
#	237896
#	249864
#
# Disc length: 3480 seconds
#
# Revision: 0
# Processed by: cddbd v1.5.1PL2 Copyright (c) Steve Scherf et al.
# Submitted via: dBpowerAMP V4.0
#
DISCID=390d9617
DTITLE=Faron Young - Young At Heart
DYEAR=1900
DGENRE=
TTITLE0=Foolish Pride
TTITLE1=Goin' Steady
TTITLE2=Have I Waited Too Long
TTITLE3=Saving My Tears For Tomorrow
TTITLE4=Just Married
TTITLE5=They Made Me Fall In Love With You
TTITLE6=What's The Use To Love You
TTITLE7=I've Got Five Dollars
TTITLE8=If You Ain't Lovin' You Ain't Livin
TTITLE9=Tattle Tale Tears
TTITLE10=You're Right But I Wish You Were Wrong
TTITLE11=What Can I Do With My Sorrow
TTITLE12=I Can't Wait For The Sun To Go Down
TTITLE13=I Hardly Knew It Was You
TTITLE14=I Knew You When
TTITLE15=Forgive Me Dear
TTITLE16=In The Chapel In The Moonlight
TTITLE17=Baby My Heart
TTITLE18=You're The Angel On My Christmas Tree
TTITLE19=Just Out Of Reach Of My Two Open Arms
TTITLE20=A Place For Girls Like You
TTITLE21=If That's The Fashion
TTITLE22=That's What I'd Do For You
EXTD=Bob Dunham
EXTT0=
EXTT1=
EXTT2=
EXTT3=
EXTT4=
EXTT5=
EXTT6=
EXTT7=
EXTT8=
EXTT9=
EXTT10=
EXTT11=
EXTT12=
EXTT13=
EXTT14=
EXTT15=
EXTT16=
EXTT17=
EXTT18=
EXTT19=
EXTT20=
EXTT21=
EXTT22=
PLAYORDER=
